<mxfile host="app.diagrams.net" modified="2021-10-05T22:58:09.503Z" agent="5.0 (Windows NT 10.0; Win64; x64) AppleWebKit/537.36 (KHTML, like Gecko) Chrome/94.0.4606.71 Safari/537.36 Edg/94.0.992.38" etag="xaIJ4kZXJmn9KL1-Pb_e" version="15.4.3" type="github">
  <diagram id="R2lEEEUBdFMjLlhIrx00" name="3.32">
    <mxGraphModel dx="865" dy="483" grid="1" gridSize="10" guides="1" tooltips="1" connect="1" arrows="1" fold="1" page="1" pageScale="1" pageWidth="850" pageHeight="1100" math="0" shadow="0" extFonts="Permanent Marker^https://fonts.googleapis.com/css?family=Permanent+Marker">
      <root>
        <mxCell id="0" />
        <mxCell id="1" parent="0" />
        <mxCell id="k1OcXceaLs0TGa2x_Or0-9" style="edgeStyle=orthogonalEdgeStyle;rounded=0;orthogonalLoop=1;jettySize=auto;html=1;exitX=0.5;exitY=1;exitDx=0;exitDy=0;entryX=0;entryY=0.5;entryDx=0;entryDy=0;endArrow=none;endFill=0;" edge="1" parent="1" source="k1OcXceaLs0TGa2x_Or0-1" target="k1OcXceaLs0TGa2x_Or0-8">
          <mxGeometry relative="1" as="geometry">
            <Array as="points">
              <mxPoint x="280" y="300" />
            </Array>
          </mxGeometry>
        </mxCell>
        <mxCell id="k1OcXceaLs0TGa2x_Or0-26" value="1" style="edgeLabel;html=1;align=center;verticalAlign=middle;resizable=0;points=[];" vertex="1" connectable="0" parent="k1OcXceaLs0TGa2x_Or0-9">
          <mxGeometry x="0.17" y="2" relative="1" as="geometry">
            <mxPoint x="20" y="2" as="offset" />
          </mxGeometry>
        </mxCell>
        <mxCell id="k1OcXceaLs0TGa2x_Or0-76" style="edgeStyle=orthogonalEdgeStyle;rounded=0;orthogonalLoop=1;jettySize=auto;html=1;entryX=0.25;entryY=0;entryDx=0;entryDy=0;endArrow=none;endFill=0;strokeColor=default;shape=link;" edge="1" parent="1" source="k1OcXceaLs0TGa2x_Or0-8" target="k1OcXceaLs0TGa2x_Or0-4">
          <mxGeometry relative="1" as="geometry" />
        </mxCell>
        <mxCell id="k1OcXceaLs0TGa2x_Or0-77" value="N" style="edgeLabel;html=1;align=center;verticalAlign=middle;resizable=0;points=[];" vertex="1" connectable="0" parent="k1OcXceaLs0TGa2x_Or0-76">
          <mxGeometry x="-0.12" y="1" relative="1" as="geometry">
            <mxPoint x="-15" y="1" as="offset" />
          </mxGeometry>
        </mxCell>
        <mxCell id="k1OcXceaLs0TGa2x_Or0-8" value="Taken" style="shape=rhombus;perimeter=rhombusPerimeter;whiteSpace=wrap;html=1;align=center;" vertex="1" parent="1">
          <mxGeometry x="350" y="270" width="120" height="60" as="geometry" />
        </mxCell>
        <mxCell id="k1OcXceaLs0TGa2x_Or0-41" value="" style="group" vertex="1" connectable="0" parent="1">
          <mxGeometry x="110" y="360" width="290" height="150" as="geometry" />
        </mxCell>
        <mxCell id="k1OcXceaLs0TGa2x_Or0-2" value="Customer" style="whiteSpace=wrap;html=1;align=center;" vertex="1" parent="k1OcXceaLs0TGa2x_Or0-41">
          <mxGeometry x="120" width="100" height="40" as="geometry" />
        </mxCell>
        <mxCell id="k1OcXceaLs0TGa2x_Or0-40" style="edgeStyle=orthogonalEdgeStyle;rounded=0;orthogonalLoop=1;jettySize=auto;html=1;endArrow=none;endFill=0;strokeColor=default;entryX=0.25;entryY=1;entryDx=0;entryDy=0;" edge="1" parent="k1OcXceaLs0TGa2x_Or0-41" source="k1OcXceaLs0TGa2x_Or0-30" target="k1OcXceaLs0TGa2x_Or0-2">
          <mxGeometry relative="1" as="geometry">
            <mxPoint x="130" y="50" as="targetPoint" />
          </mxGeometry>
        </mxCell>
        <mxCell id="k1OcXceaLs0TGa2x_Or0-30" value="Zip Code" style="ellipse;whiteSpace=wrap;html=1;align=center;" vertex="1" parent="k1OcXceaLs0TGa2x_Or0-41">
          <mxGeometry x="50" y="70" width="100" height="40" as="geometry" />
        </mxCell>
        <mxCell id="k1OcXceaLs0TGa2x_Or0-39" style="edgeStyle=orthogonalEdgeStyle;rounded=0;orthogonalLoop=1;jettySize=auto;html=1;entryX=0.75;entryY=1;entryDx=0;entryDy=0;endArrow=none;endFill=0;strokeColor=default;" edge="1" parent="k1OcXceaLs0TGa2x_Or0-41" source="k1OcXceaLs0TGa2x_Or0-31" target="k1OcXceaLs0TGa2x_Or0-2">
          <mxGeometry relative="1" as="geometry" />
        </mxCell>
        <mxCell id="k1OcXceaLs0TGa2x_Or0-31" value="Last Name" style="ellipse;whiteSpace=wrap;html=1;align=center;" vertex="1" parent="k1OcXceaLs0TGa2x_Or0-41">
          <mxGeometry x="190" y="70" width="100" height="40" as="geometry" />
        </mxCell>
        <mxCell id="k1OcXceaLs0TGa2x_Or0-38" style="edgeStyle=orthogonalEdgeStyle;rounded=0;orthogonalLoop=1;jettySize=auto;html=1;entryX=0.5;entryY=1;entryDx=0;entryDy=0;endArrow=none;endFill=0;strokeColor=default;" edge="1" parent="k1OcXceaLs0TGa2x_Or0-41" source="k1OcXceaLs0TGa2x_Or0-32" target="k1OcXceaLs0TGa2x_Or0-2">
          <mxGeometry relative="1" as="geometry" />
        </mxCell>
        <mxCell id="k1OcXceaLs0TGa2x_Or0-32" value="First Name" style="ellipse;whiteSpace=wrap;html=1;align=center;" vertex="1" parent="k1OcXceaLs0TGa2x_Or0-41">
          <mxGeometry x="120" y="110" width="100" height="40" as="geometry" />
        </mxCell>
        <mxCell id="k1OcXceaLs0TGa2x_Or0-36" style="edgeStyle=orthogonalEdgeStyle;rounded=0;orthogonalLoop=1;jettySize=auto;html=1;entryX=0;entryY=0.5;entryDx=0;entryDy=0;endArrow=none;endFill=0;strokeColor=default;" edge="1" parent="k1OcXceaLs0TGa2x_Or0-41" source="k1OcXceaLs0TGa2x_Or0-34" target="k1OcXceaLs0TGa2x_Or0-2">
          <mxGeometry relative="1" as="geometry" />
        </mxCell>
        <mxCell id="k1OcXceaLs0TGa2x_Or0-34" value="Customer Number" style="ellipse;whiteSpace=wrap;html=1;align=center;fontStyle=4;" vertex="1" parent="k1OcXceaLs0TGa2x_Or0-41">
          <mxGeometry width="100" height="40" as="geometry" />
        </mxCell>
        <mxCell id="k1OcXceaLs0TGa2x_Or0-42" value="" style="group" vertex="1" connectable="0" parent="1">
          <mxGeometry x="120" y="100" width="270" height="150" as="geometry" />
        </mxCell>
        <mxCell id="k1OcXceaLs0TGa2x_Or0-1" value="Employee" style="whiteSpace=wrap;html=1;align=center;" vertex="1" parent="k1OcXceaLs0TGa2x_Or0-42">
          <mxGeometry x="110" y="110" width="100" height="40" as="geometry" />
        </mxCell>
        <mxCell id="k1OcXceaLs0TGa2x_Or0-19" style="edgeStyle=orthogonalEdgeStyle;rounded=0;orthogonalLoop=1;jettySize=auto;html=1;entryX=0.75;entryY=0;entryDx=0;entryDy=0;endArrow=none;endFill=0;" edge="1" parent="k1OcXceaLs0TGa2x_Or0-42" source="k1OcXceaLs0TGa2x_Or0-11" target="k1OcXceaLs0TGa2x_Or0-1">
          <mxGeometry relative="1" as="geometry" />
        </mxCell>
        <mxCell id="k1OcXceaLs0TGa2x_Or0-11" value="Zip Code" style="ellipse;whiteSpace=wrap;html=1;align=center;" vertex="1" parent="k1OcXceaLs0TGa2x_Or0-42">
          <mxGeometry x="170" y="40" width="100" height="40" as="geometry" />
        </mxCell>
        <mxCell id="k1OcXceaLs0TGa2x_Or0-15" style="edgeStyle=orthogonalEdgeStyle;rounded=0;orthogonalLoop=1;jettySize=auto;html=1;entryX=0;entryY=0.5;entryDx=0;entryDy=0;endArrow=none;endFill=0;" edge="1" parent="k1OcXceaLs0TGa2x_Or0-42" source="k1OcXceaLs0TGa2x_Or0-12" target="k1OcXceaLs0TGa2x_Or0-1">
          <mxGeometry relative="1" as="geometry" />
        </mxCell>
        <mxCell id="k1OcXceaLs0TGa2x_Or0-12" value="Employee Number" style="ellipse;whiteSpace=wrap;html=1;align=center;fontStyle=4;" vertex="1" parent="k1OcXceaLs0TGa2x_Or0-42">
          <mxGeometry y="110" width="90" height="40" as="geometry" />
        </mxCell>
        <mxCell id="k1OcXceaLs0TGa2x_Or0-16" style="edgeStyle=orthogonalEdgeStyle;rounded=0;orthogonalLoop=1;jettySize=auto;html=1;entryX=0.25;entryY=0;entryDx=0;entryDy=0;endArrow=none;endFill=0;" edge="1" parent="k1OcXceaLs0TGa2x_Or0-42" source="k1OcXceaLs0TGa2x_Or0-13" target="k1OcXceaLs0TGa2x_Or0-1">
          <mxGeometry relative="1" as="geometry" />
        </mxCell>
        <mxCell id="k1OcXceaLs0TGa2x_Or0-13" value="First Name" style="ellipse;whiteSpace=wrap;html=1;align=center;" vertex="1" parent="k1OcXceaLs0TGa2x_Or0-42">
          <mxGeometry x="40" y="40" width="100" height="40" as="geometry" />
        </mxCell>
        <mxCell id="k1OcXceaLs0TGa2x_Or0-18" style="edgeStyle=orthogonalEdgeStyle;rounded=0;orthogonalLoop=1;jettySize=auto;html=1;endArrow=none;endFill=0;" edge="1" parent="k1OcXceaLs0TGa2x_Or0-42" source="k1OcXceaLs0TGa2x_Or0-14" target="k1OcXceaLs0TGa2x_Or0-1">
          <mxGeometry relative="1" as="geometry" />
        </mxCell>
        <mxCell id="k1OcXceaLs0TGa2x_Or0-14" value="Last Name" style="ellipse;whiteSpace=wrap;html=1;align=center;" vertex="1" parent="k1OcXceaLs0TGa2x_Or0-42">
          <mxGeometry x="110" width="100" height="40" as="geometry" />
        </mxCell>
        <mxCell id="k1OcXceaLs0TGa2x_Or0-17" style="edgeStyle=orthogonalEdgeStyle;rounded=0;orthogonalLoop=1;jettySize=auto;html=1;exitX=0.5;exitY=1;exitDx=0;exitDy=0;endArrow=none;endFill=0;" edge="1" parent="k1OcXceaLs0TGa2x_Or0-42" source="k1OcXceaLs0TGa2x_Or0-11" target="k1OcXceaLs0TGa2x_Or0-11">
          <mxGeometry relative="1" as="geometry" />
        </mxCell>
        <mxCell id="k1OcXceaLs0TGa2x_Or0-43" value="Placed" style="rhombus;whiteSpace=wrap;html=1;" vertex="1" parent="1">
          <mxGeometry x="385" y="350" width="80" height="60" as="geometry" />
        </mxCell>
        <mxCell id="k1OcXceaLs0TGa2x_Or0-44" value="" style="edgeStyle=orthogonalEdgeStyle;rounded=0;orthogonalLoop=1;jettySize=auto;html=1;endArrow=none;endFill=0;strokeColor=default;" edge="1" parent="1" source="k1OcXceaLs0TGa2x_Or0-2" target="k1OcXceaLs0TGa2x_Or0-43">
          <mxGeometry relative="1" as="geometry" />
        </mxCell>
        <mxCell id="k1OcXceaLs0TGa2x_Or0-46" value="1" style="edgeLabel;html=1;align=center;verticalAlign=middle;resizable=0;points=[];" vertex="1" connectable="0" parent="k1OcXceaLs0TGa2x_Or0-44">
          <mxGeometry x="0.2181" relative="1" as="geometry">
            <mxPoint x="3" as="offset" />
          </mxGeometry>
        </mxCell>
        <mxCell id="k1OcXceaLs0TGa2x_Or0-57" value="" style="group" vertex="1" connectable="0" parent="1">
          <mxGeometry x="450" y="360" width="300" height="160" as="geometry" />
        </mxCell>
        <mxCell id="k1OcXceaLs0TGa2x_Or0-4" value="Order" style="shape=ext;margin=3;double=1;whiteSpace=wrap;html=1;align=center;" vertex="1" parent="k1OcXceaLs0TGa2x_Or0-57">
          <mxGeometry x="60" width="100" height="40" as="geometry" />
        </mxCell>
        <mxCell id="k1OcXceaLs0TGa2x_Or0-45" style="edgeStyle=orthogonalEdgeStyle;rounded=0;orthogonalLoop=1;jettySize=auto;html=1;entryX=0;entryY=0.5;entryDx=0;entryDy=0;endArrow=none;endFill=0;strokeColor=default;shape=link;" edge="1" parent="k1OcXceaLs0TGa2x_Or0-57" source="k1OcXceaLs0TGa2x_Or0-43" target="k1OcXceaLs0TGa2x_Or0-4">
          <mxGeometry relative="1" as="geometry">
            <Array as="points">
              <mxPoint x="50" y="20" />
              <mxPoint x="50" y="20" />
            </Array>
          </mxGeometry>
        </mxCell>
        <mxCell id="k1OcXceaLs0TGa2x_Or0-47" value="N" style="edgeLabel;html=1;align=center;verticalAlign=middle;resizable=0;points=[];" vertex="1" connectable="0" parent="k1OcXceaLs0TGa2x_Or0-45">
          <mxGeometry x="0.2333" relative="1" as="geometry">
            <mxPoint x="-5" as="offset" />
          </mxGeometry>
        </mxCell>
        <mxCell id="k1OcXceaLs0TGa2x_Or0-55" style="edgeStyle=orthogonalEdgeStyle;rounded=0;orthogonalLoop=1;jettySize=auto;html=1;entryX=0.75;entryY=1;entryDx=0;entryDy=0;endArrow=none;endFill=0;strokeColor=default;" edge="1" parent="k1OcXceaLs0TGa2x_Or0-57" source="k1OcXceaLs0TGa2x_Or0-48" target="k1OcXceaLs0TGa2x_Or0-4">
          <mxGeometry relative="1" as="geometry" />
        </mxCell>
        <mxCell id="k1OcXceaLs0TGa2x_Or0-48" value="Actual ship date" style="ellipse;whiteSpace=wrap;html=1;align=center;" vertex="1" parent="k1OcXceaLs0TGa2x_Or0-57">
          <mxGeometry x="120" y="70" width="100" height="40" as="geometry" />
        </mxCell>
        <mxCell id="k1OcXceaLs0TGa2x_Or0-56" style="edgeStyle=orthogonalEdgeStyle;rounded=0;orthogonalLoop=1;jettySize=auto;html=1;entryX=0.5;entryY=1;entryDx=0;entryDy=0;endArrow=none;endFill=0;strokeColor=default;" edge="1" parent="k1OcXceaLs0TGa2x_Or0-57" source="k1OcXceaLs0TGa2x_Or0-49" target="k1OcXceaLs0TGa2x_Or0-4">
          <mxGeometry relative="1" as="geometry" />
        </mxCell>
        <mxCell id="k1OcXceaLs0TGa2x_Or0-49" value="Expected ship date" style="ellipse;whiteSpace=wrap;html=1;align=center;" vertex="1" parent="k1OcXceaLs0TGa2x_Or0-57">
          <mxGeometry x="60" y="120" width="100" height="40" as="geometry" />
        </mxCell>
        <mxCell id="k1OcXceaLs0TGa2x_Or0-54" style="edgeStyle=orthogonalEdgeStyle;rounded=0;orthogonalLoop=1;jettySize=auto;html=1;entryX=0.25;entryY=1;entryDx=0;entryDy=0;endArrow=none;endFill=0;strokeColor=default;" edge="1" parent="k1OcXceaLs0TGa2x_Or0-57" source="k1OcXceaLs0TGa2x_Or0-50" target="k1OcXceaLs0TGa2x_Or0-4">
          <mxGeometry relative="1" as="geometry" />
        </mxCell>
        <mxCell id="k1OcXceaLs0TGa2x_Or0-50" value="Date of receipt" style="ellipse;whiteSpace=wrap;html=1;align=center;" vertex="1" parent="k1OcXceaLs0TGa2x_Or0-57">
          <mxGeometry y="70" width="100" height="40" as="geometry" />
        </mxCell>
        <mxCell id="k1OcXceaLs0TGa2x_Or0-53" style="edgeStyle=orthogonalEdgeStyle;rounded=0;orthogonalLoop=1;jettySize=auto;html=1;entryX=1;entryY=0.5;entryDx=0;entryDy=0;endArrow=none;endFill=0;strokeColor=default;" edge="1" parent="k1OcXceaLs0TGa2x_Or0-57" source="k1OcXceaLs0TGa2x_Or0-52" target="k1OcXceaLs0TGa2x_Or0-4">
          <mxGeometry relative="1" as="geometry" />
        </mxCell>
        <mxCell id="k1OcXceaLs0TGa2x_Or0-52" value="Order Number" style="ellipse;whiteSpace=wrap;html=1;align=center;fontStyle=4;" vertex="1" parent="k1OcXceaLs0TGa2x_Or0-57">
          <mxGeometry x="200" width="100" height="40" as="geometry" />
        </mxCell>
        <mxCell id="k1OcXceaLs0TGa2x_Or0-63" style="edgeStyle=orthogonalEdgeStyle;rounded=0;orthogonalLoop=1;jettySize=auto;html=1;entryX=0.5;entryY=0;entryDx=0;entryDy=0;endArrow=none;endFill=0;strokeColor=default;exitX=0.5;exitY=1;exitDx=0;exitDy=0;" edge="1" parent="1" source="k1OcXceaLs0TGa2x_Or0-62" target="k1OcXceaLs0TGa2x_Or0-4">
          <mxGeometry relative="1" as="geometry">
            <Array as="points">
              <mxPoint x="600" y="340" />
              <mxPoint x="560" y="340" />
            </Array>
          </mxGeometry>
        </mxCell>
        <mxCell id="k1OcXceaLs0TGa2x_Or0-66" value="1" style="edgeLabel;html=1;align=center;verticalAlign=middle;resizable=0;points=[];" vertex="1" connectable="0" parent="k1OcXceaLs0TGa2x_Or0-63">
          <mxGeometry x="-0.25" y="1" relative="1" as="geometry">
            <mxPoint x="-6" y="-1" as="offset" />
          </mxGeometry>
        </mxCell>
        <mxCell id="k1OcXceaLs0TGa2x_Or0-64" style="edgeStyle=orthogonalEdgeStyle;rounded=0;orthogonalLoop=1;jettySize=auto;html=1;entryX=0.5;entryY=1;entryDx=0;entryDy=0;endArrow=none;endFill=0;strokeColor=default;exitX=0.5;exitY=0;exitDx=0;exitDy=0;" edge="1" parent="1" source="k1OcXceaLs0TGa2x_Or0-62" target="k1OcXceaLs0TGa2x_Or0-5">
          <mxGeometry relative="1" as="geometry">
            <Array as="points">
              <mxPoint x="600" y="270" />
              <mxPoint x="560" y="270" />
            </Array>
          </mxGeometry>
        </mxCell>
        <mxCell id="k1OcXceaLs0TGa2x_Or0-65" value="N" style="edgeLabel;html=1;align=center;verticalAlign=middle;resizable=0;points=[];" vertex="1" connectable="0" parent="k1OcXceaLs0TGa2x_Or0-64">
          <mxGeometry x="-0.1228" y="-3" relative="1" as="geometry">
            <mxPoint y="3" as="offset" />
          </mxGeometry>
        </mxCell>
        <mxCell id="k1OcXceaLs0TGa2x_Or0-62" value="Contained" style="shape=rhombus;perimeter=rhombusPerimeter;whiteSpace=wrap;html=1;align=center;" vertex="1" parent="1">
          <mxGeometry x="545" y="285" width="110" height="45" as="geometry" />
        </mxCell>
        <mxCell id="k1OcXceaLs0TGa2x_Or0-75" value="" style="group" vertex="1" connectable="0" parent="1">
          <mxGeometry x="450" y="100" width="300" height="150" as="geometry" />
        </mxCell>
        <mxCell id="k1OcXceaLs0TGa2x_Or0-5" value="Part" style="whiteSpace=wrap;html=1;align=center;" vertex="1" parent="k1OcXceaLs0TGa2x_Or0-75">
          <mxGeometry x="60" y="110" width="100" height="40" as="geometry" />
        </mxCell>
        <mxCell id="k1OcXceaLs0TGa2x_Or0-68" style="edgeStyle=orthogonalEdgeStyle;rounded=0;orthogonalLoop=1;jettySize=auto;html=1;entryX=1;entryY=0.5;entryDx=0;entryDy=0;endArrow=none;endFill=0;strokeColor=default;" edge="1" parent="k1OcXceaLs0TGa2x_Or0-75" source="k1OcXceaLs0TGa2x_Or0-67" target="k1OcXceaLs0TGa2x_Or0-5">
          <mxGeometry relative="1" as="geometry" />
        </mxCell>
        <mxCell id="k1OcXceaLs0TGa2x_Or0-67" value="Part Number" style="ellipse;whiteSpace=wrap;html=1;align=center;fontStyle=4;" vertex="1" parent="k1OcXceaLs0TGa2x_Or0-75">
          <mxGeometry x="200" y="110" width="100" height="40" as="geometry" />
        </mxCell>
        <mxCell id="k1OcXceaLs0TGa2x_Or0-73" style="edgeStyle=orthogonalEdgeStyle;rounded=0;orthogonalLoop=1;jettySize=auto;html=1;entryX=0.25;entryY=0;entryDx=0;entryDy=0;endArrow=none;endFill=0;strokeColor=default;" edge="1" parent="k1OcXceaLs0TGa2x_Or0-75" source="k1OcXceaLs0TGa2x_Or0-69" target="k1OcXceaLs0TGa2x_Or0-5">
          <mxGeometry relative="1" as="geometry" />
        </mxCell>
        <mxCell id="k1OcXceaLs0TGa2x_Or0-69" value="Price" style="ellipse;whiteSpace=wrap;html=1;align=center;" vertex="1" parent="k1OcXceaLs0TGa2x_Or0-75">
          <mxGeometry y="40" width="100" height="40" as="geometry" />
        </mxCell>
        <mxCell id="k1OcXceaLs0TGa2x_Or0-72" style="edgeStyle=orthogonalEdgeStyle;rounded=0;orthogonalLoop=1;jettySize=auto;html=1;entryX=0.5;entryY=0;entryDx=0;entryDy=0;endArrow=none;endFill=0;strokeColor=default;" edge="1" parent="k1OcXceaLs0TGa2x_Or0-75" source="k1OcXceaLs0TGa2x_Or0-70" target="k1OcXceaLs0TGa2x_Or0-5">
          <mxGeometry relative="1" as="geometry" />
        </mxCell>
        <mxCell id="k1OcXceaLs0TGa2x_Or0-70" value="Part Name" style="ellipse;whiteSpace=wrap;html=1;align=center;" vertex="1" parent="k1OcXceaLs0TGa2x_Or0-75">
          <mxGeometry x="60" width="100" height="40" as="geometry" />
        </mxCell>
        <mxCell id="k1OcXceaLs0TGa2x_Or0-74" style="edgeStyle=orthogonalEdgeStyle;rounded=0;orthogonalLoop=1;jettySize=auto;html=1;entryX=0.75;entryY=0;entryDx=0;entryDy=0;endArrow=none;endFill=0;strokeColor=default;" edge="1" parent="k1OcXceaLs0TGa2x_Or0-75" source="k1OcXceaLs0TGa2x_Or0-71" target="k1OcXceaLs0TGa2x_Or0-5">
          <mxGeometry relative="1" as="geometry" />
        </mxCell>
        <mxCell id="k1OcXceaLs0TGa2x_Or0-71" value="Quantity in stock" style="ellipse;whiteSpace=wrap;html=1;align=center;" vertex="1" parent="k1OcXceaLs0TGa2x_Or0-75">
          <mxGeometry x="120" y="40" width="100" height="40" as="geometry" />
        </mxCell>
      </root>
    </mxGraphModel>
  </diagram>
</mxfile>
